<?xml version="1.0" encoding="utf-8"?>
<!-- Generator: Adobe Illustrator 22.1.0, SVG Export Plug-In . SVG Version: 6.00 Build 0)  -->
<svg version="1.1" id="Layer_1" xmlns="http://www.w3.org/2000/svg" xmlns:xlink="http://www.w3.org/1999/xlink" x="0px" y="0px"
	 viewBox="0 0 585.1 741.1" style="enable-background:new 0 0 585.1 741.1;" xml:space="preserve">
<style type="text/css">
	.st0{fill:#FFFFFF;}
</style>
<path d="M50.6,205.4c2.6,0,4.5,0,6.5,0c34.5,0,69-0.1,103.5,0.1c5.3,0,6.4-1.7,6.3-6.5c-0.3-10.2-0.1-20.3-0.1-30.5
	c0-38.8,16.7-69.3,47.3-92.3c20.9-15.7,44.8-23.8,71-24.9c42.5-1.9,78.6,12,106.6,44.3c17.1,19.6,26,42.8,26.5,68.9
	c0.2,11.7,0.2,23.3,0,35c-0.1,4.5,1.1,6,5.9,5.9c34.7-0.2,69.3-0.1,104-0.1c2,0,3.9,0,6.2,0c0.1,2.1,0.2,3.7,0.2,5.4
	c0,144.3,0,288.6,0,433c0,22-12.3,39.3-31.7,44.5c-4.3,1.2-8.9,1.7-13.3,1.7c-131.3,0.1-262.6,0.1-394,0.1
	c-26.5,0-44.9-19-44.9-46.3c0-144.3,0-288.6,0-433C50.6,209.2,50.6,207.7,50.6,205.4z M166.9,243.7c-1.1-0.2-2.3-0.5-3.4-0.5
	c-23.8,0-47.7,0-71.5,0c-1.1,0-2.2,0.3-3.6,0.6c0,1.9,0,3.6,0,5.2c0,131,0,262,0,392.9c0,8.9,1.2,10.1,10.1,10.1
	c129.3,0,258.6,0,387.9,0c8.9,0,10.2-1.2,10.2-10c0-131,0-262,0-392.9c0-1.8,0-3.5,0-5.9c-2.4,0-4.2,0-6,0c-21.8,0-43.7,0-65.5,0
	c-2.3,0-4.6,0.3-6.9,0.4c0-11.8,0-23.6,0-35.3c0,0,0,0,0,0c0,11.8,0,23.5,0,35.3c0,18,0.2,36,0,54c0,3.7,0.9,6,4,8.3
	c14.2,10.5,18.4,29.9,10.4,45.7c-8,15.7-25.8,23.5-42.7,18.5c-14.2-4.2-23.2-13.8-25.9-28.3c-2.7-14.6,2.1-27,13.9-36.2
	c2.2-1.7,3.8-3,3.8-6.3c-0.2-16.8-0.2-33.7,0-50.5c0.1-4.4-1.4-5.6-5.7-5.6c-55.6,0.1-111.3,0.2-166.9,0c-4.9,0-5.8,1.7-5.8,6.1
	c0.2,16.7-0.1,33.3,0.2,50c0,2,1.6,4.6,3.2,5.9c13,10.1,18.3,26.3,13.1,41.5c-5.1,15-18.6,24.8-34.5,24.9
	c-15.9,0.1-29.9-9.8-35-24.9c-5.1-15.3,0-31.5,13.3-41.3c2.5-1.8,3.2-3.7,3.2-6.6c-0.1-18.3,0-36.6,0-55c0-11.7,0-23.4,0-35.1
	c0,0,0,0,0.1,0C166.9,220.3,166.9,232,166.9,243.7z M292.3,205.4c28,0,56-0.1,84,0.1c4.1,0,5.6-1.2,5.5-5.3
	c-0.2-10.7,0.1-21.3-0.1-32c-0.4-20.5-7.6-38.3-22-53C333.8,88.7,292.5,80.3,257,94.5c-27.6,11.1-46.9,30.3-52,60.3
	c-2.5,14.8-1.1,30.2-1.7,45.3c-0.2,4.2,1.4,5.4,5.5,5.3C236.6,205.3,264.5,205.4,292.3,205.4z M196.6,334.7
	c-0.1-6.2-5.4-11.5-11.5-11.5c-6.3,0-11.8,5.7-11.5,12c0.2,6.3,5.5,11.2,11.8,11.1C191.7,346.2,196.7,341,196.6,334.7z M400.1,346.3
	c6.3-0.1,11.4-5.3,11.4-11.5c0-6.2-5.3-11.5-11.5-11.6c-6.3-0.1-11.8,5.5-11.6,11.9C388.6,341.4,393.7,346.4,400.1,346.3z"/>
<path class="st0" d="M304.1,370.5c0.1,6.3-4.9,11.5-11.3,11.6c-6.3,0.1-11.6-4.8-11.8-11.1c-0.2-6.4,5.2-12,11.5-12
	C298.7,359,304,364.2,304.1,370.5z"/>
<path class="st0" d="M292.7,382.1c-6.4,0.1-11.5-4.9-11.7-11.2c-0.1-6.4,5.3-12,11.6-11.9c6.1,0.1,11.4,5.4,11.5,11.6
	C304.1,376.8,298.9,382,292.7,382.1z"/>
<path class="st0" d="M292.6,388.1c0-11.7,0-23.5,0-35.2c0,0,0,0-0.1,0c0,11.7,0,23.4,0,35.1C292.5,388.1,292.6,388.1,292.6,388.1z"
	/>
<path class="st0" d="M292.5,388.1c0-11.8,0-23.5,0-35.3c0,0,0,0,0,0C292.5,364.6,292.5,376.4,292.5,388.1
	C292.5,388.2,292.5,388.1,292.5,388.1z"/>
</svg>
