<?xml version="1.0" encoding="utf-8"?>
<!-- Generator: Adobe Illustrator 22.1.0, SVG Export Plug-In . SVG Version: 6.00 Build 0)  -->
<svg version="1.1" id="Layer_1" xmlns="http://www.w3.org/2000/svg" xmlns:xlink="http://www.w3.org/1999/xlink" x="0px" y="0px"
	 viewBox="0 0 1076 600" style="enable-background:new 0 0 1076 600;" xml:space="preserve">
<style type="text/css">
	.st0{opacity:7.000000e-02;}
	.st1{opacity:0.54;fill:#FFFFFF;enable-background:new    ;}
	.st2{font-family:'MyriadPro-Regular';}
	.st3{font-size:83.9218px;}
	.st4{font-size:70.7961px;}
	.st5{font-size:104.5005px;}
	.st6{opacity:7.000000e-02;enable-background:new    ;}
</style>
<g class="st0">
	<path d="M242.1,463.3c0.6,0,1,0,1.5,0c7.9,0,15.8,0,23.6,0c1.2,0,1.5-0.4,1.4-1.5c-0.1-2.3,0-4.6,0-7c0-8.9,3.8-15.8,10.8-21.1
		c4.8-3.6,10.2-5.4,16.2-5.7c9.7-0.4,17.9,2.7,24.4,10.1c3.9,4.5,5.9,9.8,6,15.8c0,2.7,0.1,5.3,0,8c0,1,0.3,1.4,1.3,1.4
		c7.9,0,15.8,0,23.8,0c0.4,0,0.9,0,1.4,0c0,0.5,0.1,0.9,0.1,1.2c0,33,0,65.9,0,98.9c0,5-2.8,9-7.2,10.2c-1,0.3-2,0.4-3,0.4
		c-30,0-60,0-90,0c-6.1,0-10.3-4.3-10.3-10.6c0-33,0-65.9,0-98.9C242.1,464.2,242.1,463.8,242.1,463.3z M268.7,472.1
		c-0.3,0-0.5-0.1-0.8-0.1c-5.4,0-10.9,0-16.3,0c-0.3,0-0.5,0.1-0.8,0.1c0,0.4,0,0.8,0,1.2c0,29.9,0,59.8,0,89.8c0,2,0.3,2.3,2.3,2.3
		c29.5,0,59.1,0,88.6,0c2,0,2.3-0.3,2.3-2.3c0-29.9,0-59.8,0-89.8c0-0.4,0-0.8,0-1.3c-0.6,0-1,0-1.4,0c-5,0-10,0-15,0
		c-0.5,0-1.1,0.1-1.6,0.1c0-2.7,0-5.4,0-8.1l0,0c0,2.7,0,5.4,0,8.1c0,4.1,0,8.2,0,12.3c0,0.8,0.2,1.4,0.9,1.9
		c3.2,2.4,4.2,6.8,2.4,10.4c-1.8,3.6-5.9,5.4-9.7,4.2c-3.2-1-5.3-3.2-5.9-6.5s0.5-6.2,3.2-8.3c0.5-0.4,0.9-0.7,0.9-1.4
		c-0.1-3.8-0.1-7.7,0-11.5c0-1-0.3-1.3-1.3-1.3c-12.7,0-25.4,0-38.1,0c-1.1,0-1.3,0.4-1.3,1.4c0,3.8,0,7.6,0,11.4
		c0,0.5,0.4,1.1,0.7,1.4c3,2.3,4.2,6,3,9.5c-1.2,3.4-4.3,5.7-7.9,5.7s-6.8-2.2-8-5.7s0-7.2,3-9.4c0.6-0.4,0.7-0.8,0.7-1.5
		C268.6,480.4,268.7,476.2,268.7,472.1c0-2.7,0-5.4,0-8l0,0C268.7,466.7,268.7,469.4,268.7,472.1z M297.3,463.3c6.4,0,12.8,0,19.2,0
		c0.9,0,1.3-0.3,1.3-1.2c0-2.4,0-4.9,0-7.3c-0.1-4.7-1.7-8.8-5-12.1c-5.9-6-15.3-7.9-23.5-4.7c-6.3,2.5-10.7,6.9-11.9,13.8
		c-0.6,3.4-0.3,6.9-0.4,10.4c0,1,0.3,1.2,1.3,1.2C284.6,463.3,291,463.3,297.3,463.3z M275.5,492.8c0-1.4-1.2-2.6-2.6-2.6
		c-1.5,0-2.7,1.3-2.6,2.7c0.1,1.4,1.3,2.6,2.7,2.5C274.3,495.5,275.5,494.3,275.5,492.8z M321.9,495.5c1.4,0,2.6-1.2,2.6-2.6
		s-1.2-2.6-2.6-2.6s-2.7,1.3-2.7,2.7C319.3,494.4,320.5,495.5,321.9,495.5z"/>
	<path class="st1" d="M300,501c0,1.4-1.1,2.6-2.6,2.7c-1.4,0-2.7-1.1-2.7-2.5c-0.1-1.5,1.2-2.7,2.6-2.7
		C298.8,498.4,300,499.6,300,501z"/>
	<path class="st1" d="M297.4,503.7c-1.5,0-2.6-1.1-2.7-2.6c0-1.5,1.2-2.7,2.7-2.7c1.4,0,2.6,1.2,2.6,2.6
		C300,502.5,298.8,503.7,297.4,503.7z"/>
	<path class="st1" d="M297.4,505.1c0-2.7,0-5.4,0-8l0,0C297.4,499.7,297.4,502.3,297.4,505.1C297.4,505,297.4,505.1,297.4,505.1z"/>
	<path class="st1" d="M297.4,505c0-2.7,0-5.4,0-8.1l0,0C297.4,499.7,297.4,502.4,297.4,505C297.4,505.1,297.4,505,297.4,505z"/>
	<text transform="matrix(1 0 0 1 275.8436 550.6598)" class="st2 st3">$</text>
</g>
<g class="st0">
	<path d="M38.9,255.5c0.5,0,0.9,0,1.3,0c6.6,0,13.3,0,19.9,0c1,0,1.2-0.3,1.2-1.3c-0.1-2,0-3.9,0-5.9c0-7.5,3.2-13.4,9.1-17.8
		c4-3,8.6-4.6,13.7-4.8c8.2-0.4,15.1,2.3,20.6,8.5c3.3,3.8,5,8.2,5.1,13.3c0,2.2,0,4.5,0,6.7c0,0.9,0.2,1.1,1.1,1.1
		c6.7,0,13.4,0,20,0c0.4,0,0.8,0,1.2,0c0,0.4,0,0.7,0,1c0,27.8,0,55.6,0,83.4c0,4.2-2.4,7.6-6.1,8.6c-0.8,0.2-1.7,0.3-2.6,0.3
		c-25.3,0-50.6,0-75.9,0c-5.1,0-8.7-3.7-8.7-8.9c0-27.8,0-55.6,0-83.4C38.9,256.2,38.9,255.9,38.9,255.5z M61.3,262.9
		c-0.2,0-0.4-0.1-0.7-0.1c-4.6,0-9.2,0-13.8,0c-0.2,0-0.4,0.1-0.7,0.1c0,0.4,0,0.7,0,1c0,25.2,0,50.5,0,75.7c0,1.7,0.2,1.9,1.9,1.9
		c24.9,0,49.8,0,74.8,0c1.7,0,2-0.2,2-1.9c0-25.2,0-50.5,0-75.7c0-0.3,0-0.7,0-1.1c-0.5,0-0.8,0-1.2,0c-4.2,0-8.4,0-12.6,0
		c-0.4,0-0.9,0.1-1.3,0.1c0-2.3,0-4.5,0-6.8l0,0c0,2.3,0,4.5,0,6.8c0,3.5,0,6.9,0,10.4c0,0.7,0.2,1.1,0.8,1.6c2.7,2,3.6,5.8,2,8.8
		c-1.5,3-5,4.5-8.2,3.6c-2.7-0.8-4.5-2.7-5-5.5s0.4-5.2,2.7-7c0.4-0.3,0.7-0.6,0.7-1.2c0-3.2,0-6.5,0-9.7c0-0.8-0.3-1.1-1.1-1.1
		c-10.7,0-21.4,0-32.2,0c-0.9,0-1.1,0.3-1.1,1.2c0,3.2,0,6.4,0,9.6c0,0.4,0.3,0.9,0.6,1.1c2.5,1.9,3.5,5.1,2.5,8s-3.6,4.8-6.6,4.8
		c-3.1,0-5.8-1.9-6.7-4.8c-1-2.9,0-6.1,2.6-8c0.5-0.4,0.6-0.7,0.6-1.3C61.3,269.9,61.3,266.4,61.3,262.9c0-2.3,0-4.5,0-6.8l0,0
		C61.3,258.4,61.3,260.6,61.3,262.9z M85.5,255.5c5.4,0,10.8,0,16.2,0c0.8,0,1.1-0.2,1.1-1c0-2.1,0-4.1,0-6.2
		c-0.1-4-1.5-7.4-4.2-10.2c-5-5.1-12.9-6.7-19.8-4c-5.3,2.1-9,5.8-10,11.6c-0.5,2.8-0.2,5.8-0.3,8.7c0,0.8,0.3,1,1.1,1
		C74.8,255.5,80.1,255.5,85.5,255.5z M67,280.4c0-1.2-1-2.2-2.2-2.2c-1.2,0-2.3,1.1-2.2,2.3c0,1.2,1.1,2.2,2.3,2.1
		C66.1,282.6,67.1,281.6,67,280.4z M106.3,282.7c1.2,0,2.2-1,2.2-2.2s-1-2.2-2.2-2.2s-2.3,1.1-2.2,2.3
		C104,281.7,105,282.7,106.3,282.7z"/>
	<path class="st1" d="M87.8,287.3c0,1.2-1,2.2-2.2,2.2s-2.2-0.9-2.3-2.1c0-1.2,1-2.3,2.2-2.3S87.7,286.1,87.8,287.3z"/>
	<path class="st1" d="M85.6,289.5c-1.2,0-2.2-0.9-2.3-2.2c0-1.2,1-2.3,2.2-2.3s2.2,1,2.2,2.2C87.8,288.5,86.8,289.5,85.6,289.5z"/>
	<path class="st1" d="M85.5,290.7c0-2.3,0-4.5,0-6.8l0,0C85.5,286.2,85.5,288.4,85.5,290.7L85.5,290.7z"/>
	<path class="st1" d="M85.5,290.7c0-2.3,0-4.5,0-6.8l0,0C85.5,286.2,85.5,288.5,85.5,290.7L85.5,290.7z"/>
	<text transform="matrix(1 0 0 1 67.3711 329.1895)" class="st2 st4">$</text>
</g>
<g class="st0">
	<path d="M878.3,162c0.7,0,1.3,0,1.8,0c9.8,0,19.6,0,29.4,0c1.5,0,1.8-0.5,1.8-1.9c-0.1-2.9,0-5.8,0-8.7c0-11,4.7-19.7,13.5-26.3
		c6-4.5,12.8-6.8,20.2-7.1c12.1-0.5,22.3,3.4,30.3,12.6c4.9,5.6,7.4,12.2,7.5,19.6c0.1,3.3,0.1,6.6,0,10c0,1.3,0.3,1.7,1.7,1.7
		c9.9-0.1,19.7,0,29.6,0c0.6,0,1.1,0,1.8,0c0,0.6,0.1,1.1,0.1,1.5c0,41.1,0,82.1,0,123.2c0,6.3-3.5,11.2-9,12.7
		c-1.2,0.3-2.5,0.5-3.8,0.5c-37.4,0-74.7,0-112.1,0c-7.5,0-12.8-5.4-12.8-13.2c0-41.1,0-82.1,0-123.2
		C878.3,163.1,878.3,162.7,878.3,162z M911.4,172.9c-0.3,0-0.7-0.1-1-0.1c-6.8,0-13.6,0-20.3,0c-0.3,0-0.6,0.1-1,0.2
		c0,0.5,0,1,0,1.5c0,37.3,0,74.5,0,111.8c0,2.5,0.4,2.9,2.9,2.9c36.8,0,73.6,0,110.4,0c2.5,0,2.9-0.4,2.9-2.9c0-37.3,0-74.5,0-111.8
		c0-0.5,0-1,0-1.7c-0.7,0-1.2,0-1.7,0c-6.2,0-12.4,0-18.6,0c-0.7,0-1.3,0.1-2,0.1c0-3.4,0-6.7,0-10.1l0,0c0,3.3,0,6.7,0,10
		c0,5.1,0,10.2,0,15.4c0,1,0.2,1.7,1.1,2.3c4,3,5.2,8.5,3,13c-2.3,4.5-7.3,6.7-12.1,5.3c-4-1.2-6.6-3.9-7.4-8
		c-0.8-4.2,0.6-7.7,4-10.3c0.6-0.5,1.1-0.9,1.1-1.8c-0.1-4.8-0.1-9.6,0-14.4c0-1.3-0.4-1.6-1.6-1.6c-15.8,0-31.7,0-47.5,0
		c-1.4,0-1.7,0.5-1.6,1.7c0,4.7,0,9.5,0.1,14.2c0,0.6,0.4,1.3,0.9,1.7c3.7,2.9,5.2,7.5,3.7,11.8c-1.4,4.3-5.3,7.1-9.8,7.1
		s-8.5-2.8-9.9-7.1c-1.5-4.4,0-9,3.8-11.7c0.7-0.5,0.9-1,0.9-1.9C911.4,183.3,911.4,178.1,911.4,172.9c0-3.4,0-6.7,0-10l0,0
		C911.4,166.2,911.4,169.6,911.4,172.9z M947.1,162c8,0,15.9,0,23.9,0c1.2,0,1.6-0.3,1.6-1.5c-0.1-3,0-6.1,0-9.1
		c-0.1-5.8-2.2-10.9-6.3-15.1c-7.3-7.5-19.1-9.9-29.2-5.9c-7.9,3.1-13.3,8.6-14.8,17.1c-0.7,4.2-0.3,8.6-0.5,12.9
		c0,1.2,0.4,1.5,1.6,1.5C931.3,162,939.2,162,947.1,162z M919.9,198.8c0-1.8-1.5-3.3-3.3-3.3s-3.3,1.6-3.3,3.4
		c0.1,1.8,1.6,3.2,3.4,3.2C918.5,202.1,919.9,200.6,919.9,198.8z M977.8,202.1c1.8,0,3.3-1.5,3.2-3.3c0-1.8-1.5-3.3-3.3-3.3
		s-3.3,1.6-3.3,3.4C974.5,200.7,976,202.1,977.8,202.1z"/>
	<path class="st1" d="M950.5,209c0,1.8-1.4,3.3-3.2,3.3s-3.3-1.4-3.4-3.2c-0.1-1.8,1.5-3.4,3.3-3.4
		C948.9,205.7,950.4,207.2,950.5,209z"/>
	<path class="st1" d="M947.2,212.3c-1.8,0-3.3-1.4-3.3-3.2s1.5-3.4,3.3-3.4c1.7,0,3.3,1.5,3.3,3.3
		C950.5,210.8,949,212.3,947.2,212.3z"/>
	<path class="st1" d="M947.2,214c0-3.3,0-6.7,0-10l0,0C947.2,207.3,947.2,210.6,947.2,214L947.2,214z"/>
	<path class="st1" d="M947.2,214c0-3.3,0-6.7,0-10l0,0C947.2,207.3,947.2,210.7,947.2,214L947.2,214z"/>
	<text transform="matrix(1 0 0 1 920.3652 270.7843)" class="st2 st5">$</text>
</g>
<image style="overflow:visible;opacity:7.000000e-02;enable-background:new    ;" width="970" height="1280" xlink:href="DCC9FDF0.png"  transform="matrix(8.084416e-02 0 0 8.084416e-02 373.5811 125.3439)">
</image>
<image style="overflow:visible;opacity:7.000000e-02;enable-background:new    ;" width="970" height="1280" xlink:href="DCC9FDF1.png"  transform="matrix(9.940087e-02 0 0 9.940087e-02 587.5812 344.2079)">
</image>
<path class="st6" d="M732,94.7c-0.1,0.8-0.1,1.7-0.2,2.5c-0.3,4.7-1.1,9.3-2.4,13.8c-2.6,8.7-6.8,16.6-12.8,23.5
	c-7.5,8.7-16.7,15-27.5,18.8c-4.2,1.5-8.6,2.5-13,3.1c-4.3,0.5-8.7,0.7-13.1,0.3c-13.9-1.2-26.3-6.3-36.8-15.4
	c-10-8.6-16.7-19.4-20.1-32.1c-0.9-3.5-1.5-7-1.8-10.6c-0.3-3.1-0.4-6.3-0.2-9.4c0.9-13.4,5.3-25.4,13.7-35.9
	C626,43,636.4,35.8,649,31.8c3.7-1.2,7.5-2,11.3-2.4c1.7-0.2,3.5-0.3,5.2-0.4c0.2,0,0.4-0.1,0.6-0.1c1.2,0,2.5,0,3.7,0
	c0.2,0,0.5,0.1,0.7,0.1c1.7,0.1,3.5,0.2,5.2,0.4c3.8,0.4,7.6,1.2,11.3,2.4c10,3.1,18.7,8.3,26.1,15.7c8,8,13.6,17.4,16.6,28.3
	c1.2,4.2,1.9,8.5,2.2,12.9c0,0.8,0.1,1.6,0.2,2.4C732,92.3,732,93.5,732,94.7z M609.5,92.9c0,32.2,26.1,58.3,58.1,58.5
	c32.6,0.2,58.9-26.2,58.9-58.5c0-32.4-26.4-58.7-58.9-58.6C635.7,34.6,609.4,60.6,609.5,92.9z"/>
<path class="st6" d="M686.2,96.7c0.3,0.2,0.5,0.3,0.6,0.4c3.4,3.4,6.9,6.9,10.3,10.3c1.4,1.4,1.4,2.8,0,4.2c-3,3-5.9,5.9-8.9,8.9
	c-1.3,1.3-2.8,1.3-4.2,0c-3.4-3.4-6.8-6.8-10.2-10.2c-0.2-0.2-0.3-0.5-0.5-0.7c-0.1,0-0.1,0.1-0.2,0.1c-0.1,0.2-0.2,0.3-0.3,0.5
	c-2.4,4-4.8,7.9-7.2,11.9c-0.8,1.3-2,1.8-3.2,1.3c-0.9-0.3-1.4-0.9-1.7-1.7c-1.7-5.2-3.4-10.5-5.2-15.7c-3.8-11.7-7.6-23.3-11.5-35
	c-0.6-1.9,0.4-3.4,1.7-3.6c0.6-0.1,1.2,0,1.8,0.1c4.2,1.3,8.4,2.7,12.6,4.1c9.6,3.2,19.3,6.3,28.9,9.5c3,1,6,2,9.1,3
	c1.1,0.4,1.8,1,2,2.2s-0.4,2.1-1.4,2.7c-4,2.4-7.9,4.8-11.9,7.2C686.8,96.3,686.6,96.5,686.2,96.7z"/>
<path class="st6" d="M633.4,74.9c-1.6,0-3.2,0-4.8,0c-1.1,0-1.8-0.7-1.8-1.7c0-1.1,0.6-1.9,1.8-1.9c3.3,0,6.6,0,9.9,0
	c1.1,0,1.8,0.8,1.8,1.9s-0.8,1.8-1.9,1.8C636.7,74.9,635,74.9,633.4,74.9z"/>
<path class="st6" d="M633.1,87.8c0.1-0.2,0.2-0.6,0.5-0.9c2.1-2.1,4.2-4.3,6.4-6.4c0.8-0.7,1.9-0.7,2.6,0c0.7,0.7,0.7,1.8-0.1,2.6
	c-2.1,2.1-4.1,4.1-6.2,6.2c-0.6,0.6-1.2,0.8-2,0.4C633.5,89.5,633.1,88.9,633.1,87.8z"/>
<path class="st6" d="M666.6,58.4c-0.2,0.4-0.3,0.9-0.6,1.2c-2.1,2.1-4.2,4.2-6.3,6.3c-0.7,0.7-1.8,0.7-2.5,0s-0.8-1.8,0-2.5
	c2.1-2.1,4.1-4.2,6.2-6.2c0.6-0.6,1.4-0.7,2.1-0.4C666.2,57,666.5,57.5,666.6,58.4z"/>
<path class="st6" d="M642,63.7c0,0.8-0.4,1.4-1.2,1.7c-0.7,0.3-1.4,0.2-1.9-0.3c-1.9-1.8-3.7-3.7-5.5-5.6c-0.7-0.7-0.6-1.8,0-2.4
	c0.7-0.7,1.8-0.8,2.5-0.1c0.7,0.6,1.3,1.2,1.9,1.9c1.2,1.2,2.4,2.4,3.5,3.5C641.8,62.7,642,63.1,642,63.7z"/>
<path class="st6" d="M647.9,55.7c0-1.2,0-2.4,0-3.6c0-1.1,0.7-1.9,1.8-1.9s1.9,0.8,1.9,1.9c0,2.4,0,4.9,0,7.3c0,1.2-0.8,1.9-1.8,1.9
	c-1.1,0-1.8-0.8-1.8-2C647.9,58.1,647.9,56.9,647.9,55.7z"/>
<path class="st6" d="M516,365.7c-0.1,0.8-0.1,1.7-0.2,2.5c-0.3,4.7-1.1,9.3-2.4,13.8c-2.6,8.7-6.8,16.6-12.8,23.5
	c-7.5,8.7-16.7,15-27.5,18.8c-4.2,1.5-8.6,2.5-13,3.1c-4.3,0.5-8.7,0.7-13.1,0.3c-13.9-1.2-26.3-6.3-36.8-15.4
	c-10-8.6-16.7-19.4-20.1-32.1c-0.9-3.5-1.5-7-1.8-10.6c-0.3-3.1-0.4-6.3-0.2-9.4c0.9-13.4,5.3-25.4,13.7-35.9
	c8.2-10.3,18.6-17.5,31.2-21.5c3.7-1.2,7.5-2,11.3-2.4c1.7-0.2,3.5-0.3,5.2-0.4c0.2,0,0.4-0.1,0.6-0.1c1.2,0,2.5,0,3.7,0
	c0.2,0,0.5,0.1,0.7,0.1c1.7,0.1,3.5,0.2,5.2,0.4c3.8,0.4,7.6,1.2,11.3,2.4c10,3.1,18.7,8.3,26.1,15.7c8,8,13.6,17.4,16.6,28.3
	c1.2,4.2,1.9,8.5,2.2,12.9c0,0.8,0.1,1.6,0.2,2.4C516,363.3,516,364.5,516,365.7z M393.5,363.9c0,32.2,26.1,58.3,58.1,58.5
	c32.6,0.2,58.9-26.2,58.9-58.5c0-32.4-26.4-58.7-58.9-58.6C419.6,305.5,393.4,331.6,393.5,363.9z"/>
<path class="st6" d="M470.2,367.6c0.3,0.2,0.5,0.3,0.6,0.4c3.4,3.4,6.9,6.9,10.3,10.3c1.4,1.4,1.4,2.8,0,4.2c-3,3-5.9,5.9-8.9,8.9
	c-1.3,1.3-2.8,1.3-4.2,0c-3.4-3.4-6.8-6.8-10.2-10.2c-0.2-0.2-0.3-0.5-0.5-0.7c-0.1,0-0.1,0.1-0.2,0.1c-0.1,0.2-0.2,0.3-0.3,0.5
	c-2.4,4-4.8,7.9-7.2,11.9c-0.8,1.3-2,1.8-3.2,1.3c-0.9-0.3-1.4-0.9-1.7-1.7c-1.7-5.2-3.4-10.5-5.2-15.7c-3.8-11.7-7.6-23.3-11.5-35
	c-0.6-1.9,0.4-3.4,1.7-3.6c0.6-0.1,1.2,0,1.8,0.1c4.2,1.3,8.4,2.7,12.6,4.1c9.6,3.2,19.3,6.3,28.9,9.5c3,1,6,2,9.1,3
	c1.1,0.4,1.8,1,2,2.2s-0.4,2.1-1.4,2.7c-4,2.4-7.9,4.8-11.9,7.2C470.8,367.3,470.6,367.4,470.2,367.6z"/>
<path class="st6" d="M417.4,345.8c-1.6,0-3.2,0-4.8,0c-1.1,0-1.8-0.7-1.8-1.7c0-1.1,0.6-1.9,1.8-1.9c3.3,0,6.6,0,9.9,0
	c1.1,0,1.8,0.8,1.8,1.9s-0.8,1.8-1.9,1.8C420.6,345.8,419,345.8,417.4,345.8z"/>
<path class="st6" d="M417.1,358.8c0.1-0.2,0.2-0.6,0.5-0.9c2.1-2.1,4.2-4.3,6.4-6.4c0.8-0.8,1.9-0.7,2.6,0s0.7,1.8-0.1,2.6
	c-2.1,2.1-4.1,4.1-6.2,6.2c-0.6,0.6-1.2,0.8-2,0.4C417.5,360.4,417.1,359.8,417.1,358.8z"/>
<path class="st6" d="M450.6,329.3c-0.2,0.4-0.3,0.9-0.6,1.2c-2.1,2.1-4.2,4.2-6.3,6.3c-0.7,0.7-1.8,0.7-2.5,0s-0.8-1.8,0-2.5
	c2.1-2.1,4.1-4.2,6.2-6.2c0.6-0.6,1.4-0.7,2.1-0.4C450.1,327.9,450.5,328.5,450.6,329.3z"/>
<path class="st6" d="M426,334.6c0,0.8-0.4,1.4-1.2,1.7c-0.7,0.3-1.4,0.2-1.9-0.3c-1.9-1.8-3.7-3.7-5.5-5.6c-0.7-0.7-0.6-1.8,0-2.4
	c0.7-0.7,1.8-0.8,2.5-0.1c0.7,0.6,1.3,1.2,1.9,1.9c1.2,1.2,2.4,2.4,3.5,3.5C425.7,333.6,426,334,426,334.6z"/>
<path class="st6" d="M431.9,326.6c0-1.2,0-2.4,0-3.6c0-1.1,0.7-1.9,1.8-1.9c1.1,0,1.9,0.8,1.9,1.9c0,2.4,0,4.9,0,7.3
	c0,1.2-0.8,1.9-1.8,1.9c-1.1,0-1.8-0.8-1.8-2C431.9,329.1,431.9,327.8,431.9,326.6z"/>
<path class="st6" d="M275.8,152.7c0,0.6-0.1,1.2-0.1,1.7c-0.2,3.3-0.8,6.5-1.7,9.7c-1.8,6.2-4.8,11.7-9,16.5
	c-5.3,6.1-11.7,10.5-19.4,13.2c-3,1-6,1.8-9.1,2.2s-6.1,0.5-9.2,0.2c-9.8-0.8-18.5-4.4-25.9-10.8c-7-6.1-11.7-13.6-14.1-22.6
	c-0.6-2.4-1.1-4.9-1.3-7.4c-0.2-2.2-0.3-4.4-0.1-6.6c0.6-9.4,3.8-17.9,9.6-25.3c5.8-7.3,13.1-12.3,22-15.1c2.6-0.8,5.2-1.4,8-1.7
	c1.2-0.1,2.4-0.2,3.6-0.3c0.1,0,0.3,0,0.4-0.1c0.9,0,1.7,0,2.6,0c0.2,0,0.3,0.1,0.5,0.1c1.2,0.1,2.4,0.2,3.6,0.3
	c2.7,0.3,5.3,0.9,7.9,1.7c7,2.2,13.1,5.9,18.4,11c5.6,5.6,9.5,12.3,11.7,19.9c0.8,3,1.3,6,1.5,9.1c0,0.6,0.1,1.1,0.1,1.7
	C275.8,151.1,275.8,151.9,275.8,152.7z M189.6,151.5c0,22.7,18.3,41,40.9,41.2c22.9,0.1,41.5-18.4,41.5-41.2s-18.6-41.3-41.4-41.2
	C208,110.4,189.5,128.8,189.6,151.5z"/>
<path class="st6" d="M243.6,154.1c0.2,0.1,0.3,0.2,0.4,0.3c2.4,2.4,4.8,4.8,7.2,7.2c1,1,1,2,0,3c-2.1,2.1-4.2,4.2-6.2,6.2
	c-0.9,0.9-2,0.9-2.9,0c-2.4-2.4-4.8-4.8-7.2-7.2c-0.1-0.1-0.2-0.3-0.3-0.5l-0.1,0.1c-0.1,0.1-0.1,0.2-0.2,0.3
	c-1.7,2.8-3.4,5.6-5.1,8.4c-0.5,0.9-1.4,1.2-2.3,0.9c-0.6-0.2-1-0.6-1.2-1.2c-1.2-3.7-2.4-7.4-3.6-11c-2.7-8.2-5.4-16.4-8.1-24.6
	c-0.4-1.3,0.3-2.4,1.2-2.5c0.4-0.1,0.9,0,1.3,0.1c3,0.9,5.9,1.9,8.8,2.9c6.8,2.2,13.5,4.4,20.3,6.7c2.1,0.7,4.2,1.4,6.4,2.1
	c0.8,0.3,1.3,0.7,1.4,1.5c0.1,0.9-0.3,1.5-1,1.9c-2.8,1.7-5.6,3.4-8.4,5.1C243.9,153.9,243.8,154,243.6,154.1z"/>
<path class="st6" d="M206.4,138.8c-1.1,0-2.3,0-3.4,0c-0.8,0-1.3-0.5-1.3-1.2c0-0.8,0.4-1.3,1.2-1.3c2.3,0,4.6,0,7,0
	c0.8,0,1.3,0.6,1.3,1.3c0,0.8-0.5,1.3-1.3,1.3C208.7,138.8,207.5,138.8,206.4,138.8z"/>
<path class="st6" d="M206.2,147.9c0.1-0.1,0.1-0.5,0.3-0.7c1.5-1.5,3-3,4.5-4.5c0.5-0.5,1.3-0.5,1.8,0s0.5,1.3-0.1,1.8
	c-1.4,1.5-2.9,2.9-4.3,4.4c-0.4,0.4-0.9,0.6-1.4,0.3C206.5,149,206.2,148.6,206.2,147.9z"/>
<path class="st6" d="M229.8,127.2c-0.1,0.3-0.2,0.6-0.4,0.8c-1.5,1.5-2.9,3-4.4,4.4c-0.5,0.5-1.3,0.5-1.8,0s-0.5-1.2,0-1.8
	c1.5-1.5,2.9-2.9,4.4-4.4c0.4-0.4,1-0.5,1.5-0.3C229.4,126.2,229.7,126.6,229.8,127.2z"/>
<path class="st6" d="M212.4,130.9c0,0.6-0.3,1-0.8,1.2s-1,0.1-1.3-0.2c-1.3-1.3-2.6-2.6-3.9-3.9c-0.5-0.5-0.4-1.2,0-1.7
	c0.5-0.5,1.3-0.5,1.8-0.1s0.9,0.9,1.3,1.3c0.8,0.8,1.7,1.7,2.5,2.5C212.3,130.2,212.5,130.5,212.4,130.9z"/>
<path class="st6" d="M216.6,125.3c0-0.9,0-1.7,0-2.6c0-0.8,0.5-1.3,1.3-1.4c0.8,0,1.3,0.5,1.3,1.3c0,1.7,0,3.4,0,5.2
	c0,0.8-0.5,1.4-1.3,1.4s-1.3-0.5-1.3-1.4C216.6,127,216.6,126.1,216.6,125.3z"/>
<image style="overflow:visible;opacity:7.000000e-02;enable-background:new    ;" width="970" height="1280" xlink:href="DCC9FDF7.png"  transform="matrix(4.555834e-02 0 0 4.555834e-02 899.693 466.3395)">
</image>
</svg>
